# xmcd
#
# Track frame offsets: 
#        150
#        14707
#        27232
#        38168
#        51686
#        62074
#        74116
#        83407
#        94831
#        107643
#        117353
#        126995
#        138529
#        149272
#        162800
#        174795
#        186000
#        198328
#        212645
#        225220
#        235908
#        245948
#        255354
#        267430
#
# Disc length: 3700 seconds
#
# Revision: 4
# Processed by: cddbd v1.5.2PL0 Copyright (c) Steve Scherf et al.
# Submitted via: ExactAudioCopy v1.1
#
DISCID=5d0e7218
DTITLE=Various Artist - New Breed R&B (Kent)
DYEAR=2001
DGENRE=R&B
TTITLE0=Larry Davis - I've Been Hurt So Many Times (mono)
TTITLE1=Z.Z. Hill - No More Doggin' (mono)
TTITLE2=Bobby 'Blue' Bland with Ike Turner and His Orchestra - Love You 
TTITLE2=Baby (mono)
TTITLE3=Little Joe Hinton - Tired Of Walkin' (stereo)
TTITLE4=B.B. King - Long Gone Baby (stereo)
TTITLE5=Jackie Shane - Stand Up Straight And Tall (stereo)
TTITLE6=The Newports - Dixie Women (mono)
TTITLE7=Frank Armstrong - Stuffed Peppers (Humpin') (mono)
TTITLE8=King Solomon - New Figure (mono)
TTITLE9=Terry and The Tyrants - Yea, Yea, Yea, Yea, Yea, Yea (stereo)
TTITLE10=Marvin and Johnny - Baby You're The One (mono)
TTITLE11=Larry and Tommy - You Gotta Bend A Little (mono)
TTITLE12=Vernon Garrett - You And Me Together (mono)
TTITLE13=Vernon and Jewel - Just To Hold My Hand (stereo)
TTITLE14=Jimmy Holiday - The New Breed (mono)
TTITLE15=Big Mama Thornton - Me And My Chauffeur (stereo)
TTITLE16=Arthur K. Adams - Let Your Hair Down (stereo)
TTITLE17=Booker T. Averhart and The Mustangs - Take Your Shoes Off (Part
TTITLE17=2) (mono)
TTITLE18=Lowell Fulsom - Lovin' Touch (mono)
TTITLE19=Al King - Ain't Givin' Up Nothin' (mono)
TTITLE20=Willie Headen - Find Another Woman (mono)
TTITLE21=Ike and Tina Turner - He's The One (mono)
TTITLE22=Mary Love - Move A Little Closer (mono)
TTITLE23=Jimmy McCracklin - I Got Eyes For You (mono)
EXTD=
EXTT0=
EXTT1=
EXTT2=
EXTT3=
EXTT4=
EXTT5=
EXTT6=
EXTT7=
EXTT8=
EXTT9=
EXTT10=
EXTT11=
EXTT12=
EXTT13=
EXTT14=
EXTT15=
EXTT16=
EXTT17=
EXTT18=
EXTT19=
EXTT20=
EXTT21=
EXTT22=
EXTT23=
PLAYORDER=
